:version 1.10
:name ASF
:units
  mass 1
  length 1
  angle deg
:documentation
  ASF file generated by Kaydara
:root
  axis xyz
  order  tx ty tz rx ry rz
  position 0 0 0
  orientation 0 0 0
:bonedata
  begin
    id 1
    name RightUpLegDummy
    direction -0.718183 -0.695806 0.00816078
    length 4.904
    axis 0 0 0 xyz
  end
  begin
    id 2
    name RightUpLeg
    direction 3.53373e-006 -0.995788 0.0916898
    length 17.4976
    axis -3.49089 -0.000906625 0.000286804 xyz
    dof rx ry rz
  end
  begin
    id 3
    name RightLeg
    direction 0.00371092 -0.995096 -0.0988419
    length 16.5821
    axis 3.68512 0.0193738 -0.131023 xyz
    dof rx ry rz
  end
  begin
    id 4
    name RightFoot
    direction 0.00079151 -0.46099 0.887405
    length 3.77069
    axis 4.81691e-005 -0.120479 -0.188788 xyz
    dof rx ry rz
  end
  begin
    id 5
    name RightToes
    direction 0 0 0
    length 0
    axis 0 0 0 xyz
    dof rx ry rz
  end
  begin
    id 6
    name SpineDummy
    direction 8.3039e-015 1 4.57515e-016
    length 4.6813
    axis 0 0 0 xyz
  end
  begin
    id 7
    name Spine
    direction -3.15643e-008 0.999988 0.00495137
    length 10.1015
    axis -0.001389 0.000121418 2.40972e-006 xyz
    dof rx ry rz
  end
  begin
    id 8
    name Spine1
    direction 0 0 0
    length 0
    axis -0.001389 0.000121451 1.30017e-006 xyz
    dof rx ry rz
  end
  begin
    id 9
    name HEadDummy
    direction -1.99912e-008 0.999999 0.00127422
    length 3.43865
    axis -0.001389 0.000121451 1.30017e-006 xyz
  end
  begin
    id 10
    name HEad
    direction 0 0 0
    length 0
    axis 0 0 0 xyz
    dof rx ry rz
  end
  begin
    id 11
    name LeftShoulder1Dummy
    direction 0.998891 -0.0402509 -0.0244456
    length 3.5433
    axis -0.001389 0.000121451 1.30017e-006 xyz
  end
  begin
    id 12
    name LeftShoulder1
    direction 0.99951 -0.000327763 0.0313091
    length 4.05031
    axis -0.001389 0.000121451 1.30017e-006 xyz
    dof rx ry rz
  end
  begin
    id 13
    name LeftArm
    direction 0.998561 -0.00100056 -0.0536182
    length 10.3537
    axis -23.1894 0.134784 0.967509 xyz
    dof rx ry rz
  end
  begin
    id 14
    name LeftForeArm
    direction 0.998903 0.00866432 0.046012
    length 8.70632
    axis -9.91835 -0.06569 -0.177794 xyz
    dof rx ry rz
  end
  begin
    id 15
    name LeftHand
    direction 0 0 0
    length 0
    axis 0 0 0 xyz
    dof rx ry rz
  end
  begin
    id 16
    name RightShoulderDummy
    direction -0.998891 -0.0402509 -0.0244414
    length 3.5433
    axis -0.001389 0.000121451 1.30017e-006 xyz
  end
  begin
    id 17
    name RightShoulder
    direction -0.99951 -0.000327807 0.0313133
    length 4.05031
    axis 0.215806 0.000203643 -0.0068026 xyz
    dof rx ry rz
  end
  begin
    id 18
    name RightArm
    direction -0.998573 -0.000999564 -0.053403
    length 10.3947
    axis -23.2009 -0.134239 -0.964101 xyz
    dof rx ry rz
  end
  begin
    id 19
    name RightForeArm
    direction -0.998898 0.00868028 0.0461306
    length 8.68355
    axis -9.92322 0.0658061 0.178868 xyz
    dof rx ry rz
  end
  begin
    id 20
    name RightHand
    direction 0 0 0
    length 0
    axis 0 0 0 xyz
    dof rx ry rz
  end
  begin
    id 21
    name LeftUpLegDummy
    direction 0.718183 -0.695806 0.00816078
    length 4.904
    axis 0 0 0 xyz
  end
  begin
    id 22
    name LeftUpLeg
    direction -6.81752e-006 -0.995793 0.0916337
    length 17.4976
    axis -3.48766 0.00143442 -0.000524262 xyz
    dof rx ry rz
  end
  begin
    id 23
    name LeftLeg
    direction -0.00601358 -0.995091 -0.0987824
    length 16.5821
    axis 3.68178 -0.00654042 -0.000285133 xyz
    dof rx ry rz
  end
  begin
    id 24
    name LeftFoot
    direction -0.00417578 -0.460984 0.887399
    length 3.77069
    axis 1.87233e-006 4.66016e-005 -8.6538e-006 xyz
    dof rx ry rz
  end
  begin
    id 25
    name LeftToes
    direction 0 0 0
    length 0
    axis 0 0 0 xyz
    dof rx ry rz
  end
:hierarchy
  begin
    root RightUpLegDummy SpineDummy LeftUpLegDummy
    RightUpLegDummy RightUpLeg
    RightUpLeg RightLeg
    RightLeg RightFoot
    RightFoot RightToes
    SpineDummy Spine
    Spine Spine1
    Spine1 HEadDummy LeftShoulder1Dummy RightShoulderDummy
    HEadDummy HEad
    LeftShoulder1Dummy LeftShoulder1
    LeftShoulder1 LeftArm
    LeftArm LeftForeArm
    LeftForeArm LeftHand
    RightShoulderDummy RightShoulder
    RightShoulder RightArm
    RightArm RightForeArm
    RightForeArm RightHand
    LeftUpLegDummy LeftUpLeg
    LeftUpLeg LeftLeg
    LeftLeg LeftFoot
    LeftFoot LeftToes
  end

:SAMPLES-PER-SECOND 30
:FULLY-SPECIFIED
:DEGREES
1
root  6.12773 35.86 9.94806 145.454 86.2725 144.253
RightUpLeg  -36.8138 -13.2926 -7.40013
RightLeg  51.2901 -5.48817 -7.67566
RightFoot  -12.2338 -0.0568511 2.04422
RightToes  0.000481921 0.542163 -0.142578
Spine  39.6248 -0.136058 2.4134
Spine1  0.999614 0.137753 1.82209
HEad  -16.7559 -1.07502 1.33377
LeftShoulder1  8.92731 -14.7239 -42.5555
LeftArm  -5.22789 -12.2745 -33.8343
LeftForeArm  179.689 -61.8303 -162.465
LeftHand  -0.25398 0.0180481 5.50724
RightShoulder  5.95142 11.3199 34.1935
RightArm  -3.22801 3.64059 39.7716
RightForeArm  164.951 60.6673 161.899
RightHand  -1.20924 2.87297 -17.1558
LeftUpLeg  -36.6941 7.53574 -0.714791
LeftLeg  49.7582 6.39019 8.47517
LeftFoot  -12.5415 0.0362078 -3.26847
LeftToes  1.06245e-005 4.65868e-005 -8.65517e-006
2
root  6.1304 35.863 9.94806 145.482 86.2366 144.337
RightUpLeg  -36.7447 -13.307 -7.43618
RightLeg  51.3006 -5.50772 -7.70429
RightFoot  -12.2169 -0.0600858 2.09441
RightToes  0.000481921 0.542163 -0.142578
Spine  39.7122 -0.148153 2.39455
Spine1  0.998825 0.115133 1.82774
HEad  -16.8083 -1.01646 1.33967
LeftShoulder1  8.88697 -14.6931 -42.4268
LeftArm  -5.23245 -12.3579 -33.9187
LeftForeArm  179.647 -61.8584 -162.442
LeftHand  -0.25398 0.0180481 5.50724
RightShoulder  5.95167 11.3055 34.2349
RightArm  -3.24464 3.71702 39.7148
RightForeArm  164.924 60.667 161.9
RightHand  -1.23899 3.03714 -17.2404
LeftUpLeg  -36.6194 7.50178 -0.72485
LeftLeg  49.7419 6.39019 8.47517
LeftFoot  -12.5511 0.0381744 -3.29908
LeftToes  1.06245e-005 4.65868e-005 -8.65517e-006
3
root  6.13757 35.866 9.94806 145.315 86.1956 144.244
RightUpLeg  -36.6401 -13.3308 -7.49698
RightLeg  51.3039 -5.50731 -7.70479
RightFoot  -12.2288 -0.0636651 2.14994
RightToes  0.000481921 0.542163 -0.142578
Spine  39.8688 -0.142055 2.3653
Spine1  0.889438 0.106081 1.85662
HEad  -16.8072 -0.989519 1.34891
LeftShoulder1  8.87404 -14.6899 -42.3688
LeftArm  -5.23746 -12.4177 -33.9162
LeftForeArm  179.581 -61.8758 -162.423
LeftHand  -0.25398 0.0180481 5.50724
RightShoulder  5.94693 11.2839 34.2605
RightArm  -3.28809 3.72783 39.6192
RightForeArm  165.006 60.665 161.91
RightHand  -1.27085 3.22513 -17.3045
LeftUpLeg  -36.5165 7.47979 -0.747146
LeftLeg  49.7277 6.39019 8.47517
LeftFoot  -12.5725 0.0399212 -3.32656
LeftToes  1.06245e-005 4.65868e-005 -8.65517e-006
4
root  6.14733 35.8633 9.94806 144.884 86.1903 143.828
RightUpLeg  -36.6084 -13.3402 -7.54218
RightLeg  51.3121 -5.46762 -7.65503
RightFoot  -12.2724 -0.0662393 2.18975
RightToes  0.000481921 0.542163 -0.142578
Spine  39.9669 -0.0962847 2.3351
Spine1  0.738665 0.134269 1.91892
HEad  -16.7644 -1.03842 1.34695
LeftShoulder1  8.92046 -14.7231 -42.5227
LeftArm  -5.24111 -12.4533 -33.7432
LeftForeArm  179.568 -61.8458 -162.443
LeftHand  -0.25398 0.0180481 5.50724
RightShoulder  5.91872 11.2401 34.1896
RightArm  -3.3126 3.65678 39.5894
RightForeArm  165.266 60.6601 161.934
RightHand  -1.27064 3.27058 -17.2152
LeftUpLeg  -36.4919 7.50469 -0.773178
LeftLeg  49.7512 6.39049 8.47759
LeftFoot  -12.5989 0.0391935 -3.31644
LeftToes  1.06245e-005 4.65868e-005 -8.65517e-006
5
root  6.15668 35.8531 9.94846 144.575 86.1973 143.481
RightUpLeg  -36.6665 -13.3333 -7.56084
RightLeg  51.3663 -5.42864 -7.6186
RightFoot  -12.3164 -0.0687972 2.22904
RightToes  0.000481921 0.542163 -0.142578
Spine  39.9611 -0.040971 2.30673
Spine1  0.684482 0.166277 2.00217
HEad  -16.7861 -1.12862 1.35457
LeftShoulder1  8.98104 -14.7524 -42.7575
LeftArm  -5.22802 -12.5427 -33.5385
LeftForeArm  179.625 -61.7996 -162.481
LeftHand  -0.25398 0.0180481 5.50724
RightShoulder  5.86963 11.1703 34.0477
RightArm  -3.2983 3.6071 39.6611
RightForeArm  165.56 60.6521 161.963
RightHand  -1.24773 3.20281 -17.0408
LeftUpLeg  -36.5543 7.5236 -0.791667
LeftLeg  49.8218 6.39265 8.49282
LeftFoot  -12.6247 0.037422 -3.29011
LeftToes  1.06245e-005 4.65868e-005 -8.65517e-006
